<mxfile host="Electron" agent="Mozilla/5.0 (Macintosh; Intel Mac OS X 10_15_7) AppleWebKit/537.36 (KHTML, like Gecko) draw.io/28.1.2 Chrome/138.0.7204.243 Electron/37.4.0 Safari/537.36" version="28.1.2">
  <diagram name="Page-1" id="ABU6z_PNMIcZOVtFaoxk">
    <mxGraphModel dx="1186" dy="916" grid="1" gridSize="10" guides="1" tooltips="1" connect="1" arrows="1" fold="1" page="1" pageScale="1" pageWidth="827" pageHeight="1169" math="0" shadow="0">
      <root>
        <mxCell id="0" />
        <mxCell id="1" parent="0" />
        <mxCell id="6JIK-2aG0fppIP_1qGl4-1" value="" style="rounded=0;whiteSpace=wrap;html=1;direction=south;" vertex="1" parent="1">
          <mxGeometry x="132.5" y="90" width="667.5" height="690" as="geometry" />
        </mxCell>
        <mxCell id="6JIK-2aG0fppIP_1qGl4-2" value="receptionist&lt;div&gt;&lt;br&gt;&lt;/div&gt;" style="shape=umlActor;verticalLabelPosition=bottom;verticalAlign=top;html=1;outlineConnect=0;" vertex="1" parent="1">
          <mxGeometry x="60" y="250" width="30" height="70" as="geometry" />
        </mxCell>
        <mxCell id="6JIK-2aG0fppIP_1qGl4-3" value="schedule patient appointments" style="ellipse;whiteSpace=wrap;html=1;" vertex="1" parent="1">
          <mxGeometry x="440" y="110" width="175" height="70" as="geometry" />
        </mxCell>
        <mxCell id="6JIK-2aG0fppIP_1qGl4-4" value="schedule hospital admissions" style="ellipse;whiteSpace=wrap;html=1;" vertex="1" parent="1">
          <mxGeometry x="440" y="220" width="175" height="70" as="geometry" />
        </mxCell>
        <mxCell id="6JIK-2aG0fppIP_1qGl4-6" value="collect patient iinfos" style="ellipse;whiteSpace=wrap;html=1;" vertex="1" parent="1">
          <mxGeometry x="239" y="340" width="175" height="70" as="geometry" />
        </mxCell>
        <mxCell id="6JIK-2aG0fppIP_1qGl4-7" value="Schedule&amp;nbsp;" style="ellipse;whiteSpace=wrap;html=1;" vertex="1" parent="1">
          <mxGeometry x="200" y="140" width="175" height="70" as="geometry" />
        </mxCell>
        <mxCell id="6JIK-2aG0fppIP_1qGl4-8" value="" style="endArrow=classic;html=1;rounded=0;entryX=1;entryY=1;entryDx=0;entryDy=0;exitX=0;exitY=0.5;exitDx=0;exitDy=0;" edge="1" parent="1" source="6JIK-2aG0fppIP_1qGl4-4" target="6JIK-2aG0fppIP_1qGl4-7">
          <mxGeometry width="50" height="50" relative="1" as="geometry">
            <mxPoint x="390" y="500" as="sourcePoint" />
            <mxPoint x="440" y="450" as="targetPoint" />
          </mxGeometry>
        </mxCell>
        <mxCell id="6JIK-2aG0fppIP_1qGl4-9" value="" style="endArrow=classic;html=1;rounded=0;entryX=1;entryY=0.5;entryDx=0;entryDy=0;exitX=0;exitY=0.5;exitDx=0;exitDy=0;" edge="1" parent="1" source="6JIK-2aG0fppIP_1qGl4-3" target="6JIK-2aG0fppIP_1qGl4-7">
          <mxGeometry width="50" height="50" relative="1" as="geometry">
            <mxPoint x="390" y="500" as="sourcePoint" />
            <mxPoint x="440" y="450" as="targetPoint" />
          </mxGeometry>
        </mxCell>
        <mxCell id="6JIK-2aG0fppIP_1qGl4-11" value="" style="endArrow=none;html=1;rounded=0;entryX=0;entryY=0.5;entryDx=0;entryDy=0;" edge="1" parent="1" source="6JIK-2aG0fppIP_1qGl4-2" target="6JIK-2aG0fppIP_1qGl4-7">
          <mxGeometry width="50" height="50" relative="1" as="geometry">
            <mxPoint x="390" y="470" as="sourcePoint" />
            <mxPoint x="440" y="420" as="targetPoint" />
          </mxGeometry>
        </mxCell>
      </root>
    </mxGraphModel>
  </diagram>
</mxfile>
